<svg xmlns="http://www.w3.org/2000/svg" viewBox="0 0 114.04 112.77"><defs><style>.cls-1{fill:#010101;}</style></defs><g id="Capa_2" data-name="Capa 2"><g id="Capa_1-2" data-name="Capa 1"><path class="cls-1" d="M112.79,23a39.71,39.71,0,0,0-8.9-12.88A39.43,39.43,0,0,0,91,1.26c-4.9-1.92-9-1.64-11.39.8L50.84,30.83c-2.44,2.44-2.72,6.49-.8,11.39a36.28,36.28,0,0,0,6.2,10c-.57.38-1.12.77-1.63,1.17-4.15,3.25-6,6.87-5.1,10.21L49.89,65,34.43,49.57C32,47.13,28,46.84,23,48.76a39.71,39.71,0,0,0-12.88,8.9,39.43,39.43,0,0,0-8.9,12.89c-1.92,4.9-1.64,9,.8,11.39l28.77,28.77a7.55,7.55,0,0,0,5.51,2.06,16.29,16.29,0,0,0,5.88-1.25,39.74,39.74,0,0,0,12.89-8.9,49.53,49.53,0,0,0,3.47-3.86L59.66,103c.86,3.34,4.2,5.64,9.4,6.48a29.12,29.12,0,0,0,4.7.36,44.43,44.43,0,0,0,10.92-1.47,39.49,39.49,0,0,0,14.21-6.57c4.15-3.25,6-6.88,5.1-10.22,0,0-10-38.92-10.07-39.06L112,34.43c2.44-2.44,2.73-6.48.81-11.39ZM89.15,6a34.47,34.47,0,0,1,11.14,7.76,34.42,34.42,0,0,1,7.76,11.14c1.07,2.74,1.2,5.07.33,5.94s-3.2.74-5.93-.33A34.35,34.35,0,0,1,91.3,22.74,34.58,34.58,0,0,1,83.54,11.6c-1.07-2.74-1.2-5.07-.33-5.94a2.69,2.69,0,0,1,1.91-.57A11.58,11.58,0,0,1,89.15,6ZM54.77,40.37c-1.07-2.74-1.2-5.07-.33-5.94L78,10.88a19,19,0,0,0,.82,2.57,39.43,39.43,0,0,0,8.9,12.89,39.71,39.71,0,0,0,12.88,8.9,23.65,23.65,0,0,0,2.57.82L91.05,48.17a15.05,15.05,0,0,0-6.6-2.5,39.5,39.5,0,0,0-15.63,1.11,46.54,46.54,0,0,0-8,2.86,32.27,32.27,0,0,1-6-9.27Zm3,17A34.45,34.45,0,0,1,70.09,51.7a39.47,39.47,0,0,1,9.63-1.31,24.06,24.06,0,0,1,3.91.3c2.91.47,5,1.54,5.29,2.73s-1,3.13-3.31,4.94A34.17,34.17,0,0,1,73.26,64a34.51,34.51,0,0,1-13.54,1c-2.9-.47-5-1.54-5.28-2.73s1-3.13,3.31-4.95ZM6,72.4a34.58,34.58,0,0,1,7.76-11.14A34.35,34.35,0,0,1,24.9,53.5a11.53,11.53,0,0,1,4-.9,2.68,2.68,0,0,1,1.9.57c.87.87.74,3.2-.33,5.94a34.42,34.42,0,0,1-7.76,11.14A34.42,34.42,0,0,1,11.6,78c-2.74,1.07-5.07,1.2-5.94.33s-.74-3.2.33-5.94ZM51.51,99a34.32,34.32,0,0,1-11.14,7.76c-2.74,1.07-5.07,1.2-5.94.33L10.88,83.57a22.33,22.33,0,0,0,2.57-.82,39.74,39.74,0,0,0,12.89-8.9A39.84,39.84,0,0,0,35.24,61a21.07,21.07,0,0,0,.82-2.57L52.39,74.72l4.54,17.65A40.57,40.57,0,0,1,51.51,99Zm47.55-6.2c.31,1.19-1,3.13-3.3,5a34.58,34.58,0,0,1-12.35,5.65,34.3,34.3,0,0,1-13.54,1c-2.9-.47-5-1.54-5.28-2.73L56.28,69.45a19.54,19.54,0,0,0,2.63.6,29.37,29.37,0,0,0,4.71.35,44.26,44.26,0,0,0,10.91-1.46,39.54,39.54,0,0,0,14.22-6.57,22.52,22.52,0,0,0,2-1.79Z"/><path class="cls-1" d="M24.72,82.12a2.55,2.55,0,0,0-3.6,3.6L31.3,95.89a2.54,2.54,0,0,0,3.59-3.6L24.72,82.12Z"/><path class="cls-1" d="M78.12,21.09a2.52,2.52,0,0,0-3.59,0L63.08,32.53a2.55,2.55,0,0,0,3.6,3.6L78.12,24.68A2.52,2.52,0,0,0,78.12,21.09Z"/></g></g></svg>