<svg xmlns="http://www.w3.org/2000/svg" viewBox="0 0 121.82 121.82"><defs><style>.cls-1{fill:#010101;}</style></defs><g id="Capa_2" data-name="Capa 2"><g id="Capa_1-2" data-name="Capa 1"><path class="cls-1" d="M120.08,112.22,81.92,73.85a45.82,45.82,0,1,0-8.07,8.07l38.37,38.16a5.14,5.14,0,0,0,4,1.74,5.67,5.67,0,0,0,5.61-5.61A5.14,5.14,0,0,0,120.08,112.22Zm-41.91-55a34.2,34.2,0,0,1-30,22.66A35.93,35.93,0,0,0,65.79,66.81a37.68,37.68,0,0,0,6.75-20.88,26.62,26.62,0,0,0-53.23,0,17.11,17.11,0,0,0,34.22,0,5.12,5.12,0,0,0-1.88-4,4.87,4.87,0,0,0-3.82-1.67,5.7,5.7,0,0,0-5.71,5.71,4.45,4.45,0,0,1-1.87,3.82,4.48,4.48,0,0,1-3.83,1.88,5.15,5.15,0,0,1-4-1.88,4.86,4.86,0,0,1-1.66-3.82A15.16,15.16,0,0,1,45.93,30.72a15.59,15.59,0,0,1,10.76,4.44,15.23,15.23,0,0,1,4.44,10.77,24.71,24.71,0,0,1-49.42,0A34.22,34.22,0,1,1,78.17,57.24Z"/></g></g></svg>