<svg xmlns="http://www.w3.org/2000/svg" viewBox="0 0 161.08 96.55"><defs><style>.cls-1{fill:#010101;}</style></defs><g id="Capa_2" data-name="Capa 2"><g id="Capa_1-2" data-name="Capa 1"><path class="cls-1" d="M157.3,64.27a5.16,5.16,0,0,1,1.86,3.1,9.37,9.37,0,0,1-.33,3.5,6,6,0,0,1-2.24,2.7,8.47,8.47,0,0,1-3.35,1,6.29,6.29,0,0,1-2.7-.63L127,62.2a48.4,48.4,0,0,1-92.76,0L10.76,74a5.89,5.89,0,0,1-2.7.63,8.46,8.46,0,0,1-3.36-1,6,6,0,0,1-2.23-2.7,6.34,6.34,0,0,1-.34-3.5,6.14,6.14,0,0,1,1.65-3.1l7.7-7.74L4.13,54.11a7.87,7.87,0,0,1-3-2.22,6.07,6.07,0,0,1,0-7.08,6.22,6.22,0,0,1,3-2.2l7.35-2.42-7.7-7.91A5.07,5.07,0,0,1,2,28.7a7.06,7.06,0,0,1,1.12-4.23,7,7,0,0,1,3.46-2.12,5.1,5.1,0,0,1,4.14.45L34,34.57a50.24,50.24,0,0,1,17.67-25,48.37,48.37,0,0,1,57.85,0,46.66,46.66,0,0,1,17.24,25l23.74-11.69a6,6,0,0,1,8.7,5.9,6.25,6.25,0,0,1-1.94,3.78l-7.49,7.68,7.36,2.42a6.2,6.2,0,0,1,3,2.22,6,6,0,0,1,.91,3.53,6,6,0,0,1-.91,3.56,6.15,6.15,0,0,1-3,2.19l-7.36,2.42Zm-54.87,13L70.64,13.7a35.92,35.92,0,0,0-11.77,5.83L90.65,83.07A41.13,41.13,0,0,0,102.43,77.25ZM54,72.94A35,35,0,0,0,77.77,84.2L50.07,29a34.31,34.31,0,0,0-5.72,19.36A36.34,36.34,0,0,0,54,72.94Zm62.86-22.71A36,36,0,0,0,83.52,12.39l27.7,55.35a37.41,37.41,0,0,0,5.65-17.51Z"/></g></g></svg>