<svg xmlns="http://www.w3.org/2000/svg" viewBox="0 0 116.45 116.45"><defs><style>.cls-1{fill:#010101;}</style></defs><g id="Capa_2" data-name="Capa 2"><g id="Capa_1-2" data-name="Capa 1"><path class="cls-1" d="M106,30a26.85,26.85,0,0,0-1.53-27.68,5.44,5.44,0,1,0-8.9,6.26A15.41,15.41,0,0,1,97,23.05,35.42,35.42,0,0,0,56.66,26.2a5,5,0,0,0-2.08,4.64,5.48,5.48,0,0,0,2.64,4.34l10.23,6.16V61.91a5.45,5.45,0,0,0,5.45,5.46H93.73l7.51,10.42a5.46,5.46,0,0,0,4.43,2.27h.13a5.45,5.45,0,0,0,4.44-2.49A38.84,38.84,0,0,0,106,30ZM95.34,82a13.7,13.7,0,0,0,1,1C81,99.68,52.86,116.45,16.67,116.45a16.86,16.86,0,0,1,0-33.72c16.31,0,23.29-15.39,30-30.27,1.93-4.24,3.83-8.16,5.86-11.76.32.23.58.51.92.72l6.7,4v4.09c-1.17,2.37-2.35,4.87-3.55,7.52C49.2,73.42,40,93.77,16.66,93.77a5.83,5.83,0,0,0,0,11.65c32.84,0,58.59-15.71,71.78-30h2.1Z"/></g></g></svg>