<svg xmlns="http://www.w3.org/2000/svg" viewBox="0 0 118.68 127.63"><defs><style>.cls-1{fill:#010101;}</style></defs><g id="Capa_2" data-name="Capa 2"><g id="Capa_1-2" data-name="Capa 1"><path class="cls-1" d="M104.54,9.29,95.9,0,73.13,24.49,80,31.87a6.34,6.34,0,0,1,5.23-1.22c1.38.15,1.8.13,2.25-.36s.48-.93.33-2.42a6.84,6.84,0,0,1,1.58-6.18A5.75,5.75,0,0,1,95.12,20c1.38.16,1.8.13,2.25-.36s.48-.93.34-2.43A7.3,7.3,0,0,1,99.29,11a5.8,5.8,0,0,1,5.25-1.75Z"/><path class="cls-1" d="M118.68,24.49,108.51,13.56a7.38,7.38,0,0,1-3.92.38c-1.38-.15-1.8-.12-2.26.37s-.48.93-.34,2.43a7.23,7.23,0,0,1-1.58,6.17,6.13,6.13,0,0,1-5.73,1.7c-1.4-.16-1.81-.13-2.26.36s-.48.93-.33,2.42a6.82,6.82,0,0,1-1.58,6.17,5.72,5.72,0,0,1-5.73,1.69,4.81,4.81,0,0,0-1.65,0L95.91,49Z"/><path class="cls-1" d="M0,98.52,9.86,87.91,36.94,117l-9.87,10.61Z"/><path class="cls-1" d="M67.94,25.45l-55,59.19L40,113.76,95,54.57ZM38.41,76.51,68.83,43.79l3,3.27L41.46,79.78Zm6.09,6.54L74.92,50.33l3,3.27L47.54,86.32Z"/></g></g></svg>