<svg xmlns="http://www.w3.org/2000/svg" viewBox="0 0 93.19 134.82"><defs><style>.cls-1{fill:#010101;}</style></defs><g id="Capa_2" data-name="Capa 2"><g id="Capa_1-2" data-name="Capa 1"><path class="cls-1" d="M62.25,47.82c0-4.14-3.12-7.77-8.06-9.47a7.89,7.89,0,0,0-15.42,0c-4.93,1.7-8.06,5.35-8.06,9.47v4.76a2.8,2.8,0,0,0,2.8,2.8H52.82a2.8,2.8,0,1,0,0-5.6H36.31v-2c0-1.42,1.32-2.86,3.35-3.8A7.89,7.89,0,0,0,53.3,44c2,.94,3.35,2.37,3.35,3.8a2.8,2.8,0,1,0,5.6,0ZM46.48,42.33A2.3,2.3,0,1,1,48.77,40,2.29,2.29,0,0,1,46.48,42.33ZM76.73,90.26A16.46,16.46,0,1,0,70.3,58.65,32.6,32.6,0,0,0,79,36.56a34.3,34.3,0,0,0-.24-3.94A17,17,0,1,0,59.08,5.92a68.32,68.32,0,0,0-12.6-1.85c-4,0-10.09,1.21-13.09,1.87A17,17,0,1,0,14.21,32.81,31.2,31.2,0,0,0,14,36.56a32.18,32.18,0,0,0,8.5,21.92,16.46,16.46,0,1,0-6,31.78c.49,0,1,0,1.47-.07v14.7A16.46,16.46,0,1,0,43.6,121.16h5.81a16.46,16.46,0,1,0,25.12-16.65V90.1A16,16,0,0,0,76.73,90.26Zm-6.84,17.61a2.68,2.68,0,0,0,1,1,10.86,10.86,0,1,1-13.5,2.38,2.8,2.8,0,0,0-4.24-3.67,16.51,16.51,0,0,0-3.77,8H43.6a16.51,16.51,0,0,0-3.77-8,2.8,2.8,0,0,0-4.24,3.67A10.85,10.85,0,1,1,22,108.9a2.72,2.72,0,0,0,.72-.54v0a1.46,1.46,0,0,0,.16-.19h0l.14-.21h0a2.65,2.65,0,0,0,.38-1v0l0-.24v-.06c0-.06,0-.12,0-.18V88.66A16.48,16.48,0,0,0,32.92,73.8a2.8,2.8,0,0,0-5.6,0,10.85,10.85,0,1,1-4.79-9,2.76,2.76,0,0,0,2.4.35,2.77,2.77,0,0,0,1.25.3,2.8,2.8,0,0,0,2-.81l1-1A37.66,37.66,0,0,0,44.72,67h6.85a2.8,2.8,0,0,0,0-5.6H44.72A32.06,32.06,0,0,1,30.1,57.88a26.88,26.88,0,0,1-5.87-36.42,2.8,2.8,0,0,0-4.64-3.15,32.4,32.4,0,0,0-4.23,8.89A11.41,11.41,0,1,1,29.94,10.63a2.8,2.8,0,0,0,3,1.16c.09,0,8.9-2.12,13.57-2.12s13,2.09,13,2.11a2.79,2.79,0,0,0,3-1.15A11.41,11.41,0,1,1,77.53,27a32.59,32.59,0,0,0-4.16-8.66,2.8,2.8,0,0,0-4.64,3.15,26.89,26.89,0,0,1-6.61,37,2.8,2.8,0,0,0,.18,4.68L65.49,65a2.83,2.83,0,0,0,1.45.4,2.88,2.88,0,0,0,1.28-.31,2.77,2.77,0,0,0,2.44-.34,10.86,10.86,0,1,1-4.78,9,2.8,2.8,0,0,0-5.6,0,16.45,16.45,0,0,0,8.65,14.48v17.49A2.76,2.76,0,0,0,69.89,107.87ZM32.76,34.68a4.56,4.56,0,1,1,4.56-4.56A4.56,4.56,0,0,1,32.76,34.68Zm22.73-4.56A4.56,4.56,0,1,1,60,34.68,4.56,4.56,0,0,1,55.49,30.12Z"/></g></g></svg>