<svg xmlns="http://www.w3.org/2000/svg" viewBox="0 0 122.27 122.89"><defs><style>.cls-1{fill:#010101;}</style></defs><g id="Capa_2" data-name="Capa 2"><g id="Capa_1-2" data-name="Capa 1"><path class="cls-1" d="M60,12.81a1.14,1.14,0,0,0-.17-.15l.32.32A1.14,1.14,0,0,0,60,12.81Zm2.06,33-6.54,6.55,6.55-6.54Zm0,0-6.54,6.55,6.55-6.54Z"/><path class="cls-1" d="M121.25,74.32,92.81,45.88,95.28,45a2.24,2.24,0,0,0,1-3.75L83.06,28a2.25,2.25,0,0,0-3.18,0l-2.33,2.34L47.85.66a2.25,2.25,0,0,0-3.18,0l-44,44a2.25,2.25,0,0,0,0,3.18L12.82,60,30.35,77.55,28,79.88a2.25,2.25,0,0,0,0,3.18L41,96a2.3,2.3,0,0,0,.82.52,2.24,2.24,0,0,0,2.87-1.34l.63-1.73L73.7,121.87a3.47,3.47,0,0,0,4.72.18l.2-.18,42.63-42.63a3.48,3.48,0,0,0,0-4.92ZM74.37,33.52l-9.11,9.11L60.4,37.77l9.1-9.11ZM39.6,36.42l6.54-6.55,7.9,7.9-6.55,6.54Zm4.71,11.07L37.77,54l-7.89-7.89,6.54-6.54ZM57.22,41l4.87,4.87-6.55,6.54-4.87-4.87Zm9.1-15.47-9.1,9.11-7.9-7.9,9.1-9.1Zm-20.06-20,9,9-9.1,9.1-9-9ZM34,17.71l9,9-6.54,6.55-9-9Zm-9.72,9.73,9,9L26.7,43l-9-9ZM5.43,46.26l9.11-9.1,9,9-9.11,9.1ZM26.7,49.32l7.89,7.89-9.1,9.11-7.9-7.9Zm6.83,25L28.67,69.5l9.1-9.11,4.87,4.87ZM41,57.21l6.54-6.54,4.87,4.87-6.54,6.54ZM76.16,118,47,88.83l4.19-11.51,19.07-5.69a2.24,2.24,0,0,0,1.52-1.54L77,51.66l11.16-4.08,29.2,29.2Z"/></g></g></svg>