<svg xmlns="http://www.w3.org/2000/svg" viewBox="0 0 97.85 112"><defs><style>.cls-1{fill:#010101;}</style></defs><g id="Capa_2" data-name="Capa 2"><g id="Capa_1-2" data-name="Capa 1"><path class="cls-1" d="M94.48,38.94a19.56,19.56,0,0,0-9.73-7.37l-4.33-2.24A31.51,31.51,0,0,0,48.81,0a3.32,3.32,0,0,0-1.75.59,3.48,3.48,0,0,0-1.29,1.57,2.43,2.43,0,0,0-.2,2,3.41,3.41,0,0,0,1,1.8,4.61,4.61,0,0,1,1.3,2.4,4.5,4.5,0,0,1-.29,2.71,4.53,4.53,0,0,1-1.71,2.13,4.6,4.6,0,0,1-2.62.78H35A17.48,17.48,0,0,0,17.65,29.29l-4.39,2.28a19.7,19.7,0,0,0,.88,37.51L20,106.18a7,7,0,0,0,6.9,5.82h5.43L27.11,70h7l5.25,42H58.61l5.25-42h7l-5.25,42h5.43a8.34,8.34,0,0,0,4.53-1.66,6.89,6.89,0,0,0,2.36-4.2l5.91-37.06a19.77,19.77,0,0,0,10.06-6.91,18.36,18.36,0,0,0,3.87-11.53A18.31,18.31,0,0,0,94.48,38.94ZM87.4,51.71a9.28,9.28,0,0,1-9.17,7.79H19.78a9.27,9.27,0,0,1-2.93-18.07,8.59,8.59,0,0,0,1-.41l6.38-3.31A6.74,6.74,0,0,0,27,35.15a7,7,0,0,0,1-3.65,7,7,0,0,1,7-7h8.2a16.71,16.71,0,0,0,8.44-2.56,14.9,14.9,0,0,0,5.6-6.83,14.37,14.37,0,0,0,.81-2.56,21.11,21.11,0,0,1,8.71,7.75A22.88,22.88,0,0,1,70,31.5a5.57,5.57,0,0,0,1,3.65,6.74,6.74,0,0,0,2.76,2.56L80.18,41a7.77,7.77,0,0,0,1,.41A9.29,9.29,0,0,1,87.4,51.71Z"/></g></g></svg>