<svg width="175" height="175" viewBox="0 0 175 175" fill="none" xmlns="http://www.w3.org/2000/svg">
<g filter="url(#filter0_d_153_43)">
<path fill-rule="evenodd" clip-rule="evenodd" d="M67.4479 58.3333C67.4479 31.1505 89.4839 9.11456 116.667 9.11456C143.849 9.11456 165.885 31.1505 165.885 58.3333C165.885 85.5161 143.849 107.552 116.667 107.552C113.184 107.552 109.783 107.19 106.501 106.5C107.19 109.78 107.552 113.181 107.552 116.667C107.552 143.849 85.5161 165.885 58.3333 165.885C31.1505 165.885 9.11455 143.849 9.11455 116.667C9.11455 89.4839 31.1505 67.4479 58.3333 67.4479C61.8187 67.4479 65.2195 67.8102 68.5001 68.4992C67.8103 65.2166 67.4479 61.8157 67.4479 58.3333ZM35.9307 13.3095C37.9517 11.0649 41.4095 10.8837 43.6541 12.9047L58.9807 26.7048C61.2252 28.7258 61.4064 32.1837 59.3854 34.4282L45.5853 49.7548C43.5643 51.9993 40.1065 52.1805 37.8619 50.1595C35.6174 48.1386 35.4362 44.6807 37.4572 42.4362L41.6647 37.7632C36.9322 38.6534 32.5575 39.9819 28.91 41.9732C25.486 43.8424 22.8633 46.213 21.1268 49.239C19.3969 52.2535 18.3257 56.3022 18.619 61.8991C18.7771 64.9152 16.4602 67.4885 13.444 67.6465C10.4278 67.8046 7.85459 65.4877 7.69652 62.4715C7.31245 55.1431 8.69236 48.9322 11.6403 43.7951C14.5816 38.6696 18.8634 34.9966 23.669 32.3731C29.3249 29.2854 35.9131 27.5446 42.4448 26.5337L36.3355 21.0328C34.0909 19.0119 33.9097 15.554 35.9307 13.3095ZM161.558 107.345C164.574 107.187 167.147 109.504 167.305 112.52C167.689 119.848 166.31 126.059 163.362 131.197C160.42 136.322 156.139 139.995 151.333 142.618C145.677 145.706 139.089 147.447 132.557 148.458L138.666 153.959C140.911 155.98 141.092 159.438 139.071 161.682C137.05 163.927 133.592 164.108 131.348 162.087L116.021 148.287C113.777 146.266 113.596 142.808 115.617 140.563L129.417 125.237C131.438 122.992 134.895 122.811 137.14 124.832C139.385 126.853 139.566 130.311 137.545 132.555L133.337 137.228C138.07 136.338 142.444 135.01 146.092 133.018C149.516 131.149 152.139 128.779 153.875 125.753C155.605 122.738 156.676 118.689 156.383 113.093C156.225 110.076 158.542 107.503 161.558 107.345Z" fill="white"/>
</g>
<defs>
<filter id="filter0_d_153_43" x="-4" y="0" width="183" height="183" filterUnits="userSpaceOnUse" color-interpolation-filters="sRGB">
<feFlood flood-opacity="0" result="BackgroundImageFix"/>
<feColorMatrix in="SourceAlpha" type="matrix" values="0 0 0 0 0 0 0 0 0 0 0 0 0 0 0 0 0 0 127 0" result="hardAlpha"/>
<feOffset dy="4"/>
<feGaussianBlur stdDeviation="2"/>
<feComposite in2="hardAlpha" operator="out"/>
<feColorMatrix type="matrix" values="0 0 0 0 0 0 0 0 0 0 0 0 0 0 0 0 0 0 0.25 0"/>
<feBlend mode="normal" in2="BackgroundImageFix" result="effect1_dropShadow_153_43"/>
<feBlend mode="normal" in="SourceGraphic" in2="effect1_dropShadow_153_43" result="shape"/>
</filter>
</defs>
</svg>
