<svg width="866" height="837" viewBox="0 0 866 837" fill="none" xmlns="http://www.w3.org/2000/svg">
<g clip-path="url(#clip0_453_11)">
<path d="M261.04 241.346C261.04 289.756 250.613 328.999 237.754 328.999C224.895 328.999 214.468 289.756 214.468 241.346C214.468 192.937 224.895 153.694 237.754 153.694C250.613 153.694 261.04 192.937 261.04 241.346Z" fill="black"/>
<path d="M156.254 241.346C156.28 258.139 160.786 274.574 169.243 288.695C177.695 302.815 189.742 314.029 203.948 320.999C195.034 295.559 190.699 268.531 191.182 241.346C190.699 214.162 195.034 187.134 203.948 161.694C189.742 168.664 177.695 179.878 169.243 193.998C160.786 208.119 156.28 224.554 156.254 241.346V241.346Z" fill="black"/>
<path d="M319.254 241.346C319.228 224.554 314.721 208.119 306.265 193.998C297.813 179.878 285.765 168.664 271.56 161.694C280.474 187.134 284.809 214.162 284.325 241.346C284.809 268.531 280.474 295.559 271.56 320.999C285.765 314.029 297.813 302.815 306.265 288.695C314.721 274.574 319.228 258.139 319.254 241.346Z" fill="black"/>
<path d="M641.86 586.748C636.798 591.114 633.83 597.699 633.778 604.675C640.114 604.099 645.982 600.84 650.094 595.613C655 591.225 657.973 584.813 658.28 577.954C657.973 577.887 657.667 577.853 657.355 577.859C651.372 578.736 645.873 581.889 641.86 586.747L641.86 586.748Z" fill="black"/>
<path d="M680.182 516.826C652.389 516.826 625.736 528.699 606.088 549.835C586.435 570.966 575.396 599.632 575.396 629.522C575.396 659.413 586.436 688.078 606.088 709.209C625.736 730.346 652.389 742.218 680.182 742.218C707.974 742.218 734.628 730.345 754.275 709.209C773.928 688.078 784.967 659.413 784.967 629.522C784.936 599.643 773.886 570.999 754.243 549.869C734.596 528.744 707.963 516.86 680.182 516.826V516.826ZM666.548 613.317C658.305 622.993 646.88 628.829 634.701 629.595C628.163 629.774 621.832 627.096 617.159 622.171C605.427 609.566 608.972 586.72 625.392 569.038C641.811 551.407 663.06 547.577 674.78 560.172L674.801 560.194C686.516 572.822 682.966 595.663 666.547 613.322L666.548 613.317Z" fill="black"/>
<path d="M703.64 96.4629L656.892 46.1797L533.639 178.738L570.776 218.678C578.931 212.339 589.176 209.947 599.041 212.071C606.536 212.893 608.787 212.77 611.24 210.126C613.699 207.487 613.823 205.1 613.049 197.006C610.206 185.032 613.439 172.337 621.563 163.599C629.687 154.861 641.495 151.379 652.63 154.437C660.125 155.281 662.375 155.136 664.829 152.491C667.308 149.825 667.443 147.427 666.669 139.31C664.262 127.347 667.454 114.876 675.209 105.915C682.75 98.0886 693.308 94.5781 703.64 96.4619L703.64 96.4629Z" fill="black"/>
<path d="M780.15 178.738L725.118 119.556C718.335 122.172 711.037 122.888 703.921 121.647C696.416 120.814 694.165 120.959 691.675 123.625C689.206 126.281 689.071 128.673 689.846 136.785C692.252 148.758 689.056 161.236 681.296 170.203C672.964 178.532 661.367 181.953 650.244 179.365C642.692 178.532 640.488 178.666 638.035 181.31C635.576 183.954 635.452 186.347 636.226 194.441C639.069 206.41 635.831 219.098 627.712 227.837C619.588 236.568 607.789 240.051 596.661 236.993C593.719 236.451 590.715 236.434 587.768 236.948L656.897 311.296L780.15 178.738Z" fill="black"/>
<path d="M137.785 579.435L191.181 522.008L337.708 679.596L284.312 737.023L137.785 579.435Z" fill="black"/>
<path d="M505.539 183.918L207.642 504.304L354.182 661.907L652.079 341.521L505.539 183.918ZM345.706 460.285L510.356 283.191L526.817 300.9L362.181 477.994L345.706 460.285ZM378.634 495.698L543.297 318.618L559.763 336.322L395.1 513.401L378.634 495.698Z" fill="black"/>
<path d="M447.325 166.216C447.325 193.875 426.472 216.303 400.754 216.303C375.036 216.303 354.182 193.875 354.182 166.216C354.182 138.556 375.036 116.129 400.754 116.129C426.472 116.129 447.325 138.556 447.325 166.216Z" fill="black"/>
<path d="M773.324 391.608C764.067 391.58 755.2 387.611 748.656 380.573C742.112 373.535 738.422 363.999 738.396 354.043C738.396 347.128 733.183 341.521 726.753 341.521C720.324 341.521 715.11 347.128 715.11 354.043C715.084 363.999 711.394 373.535 704.85 380.573C698.306 387.611 689.439 391.58 680.182 391.608C673.752 391.608 668.539 397.215 668.539 404.13C668.539 411.045 673.752 416.652 680.182 416.652C689.439 416.68 698.306 420.649 704.85 427.686C711.394 434.724 715.084 444.261 715.11 454.217C715.11 461.132 720.324 466.739 726.753 466.739C733.183 466.739 738.396 461.132 738.396 454.217C738.422 444.261 742.112 434.724 748.656 427.686C755.2 420.648 764.067 416.68 773.324 416.652C779.754 416.652 784.967 411.045 784.967 404.13C784.967 397.215 779.754 391.608 773.324 391.608Z" fill="black"/>
<path d="M482.253 617H505.539V642.044H482.253V617Z" fill="black"/>
<path d="M482.253 667.088H505.539V692.131H482.253V667.088Z" fill="black"/>
<path d="M458.968 642.044H482.253V667.088H458.968V642.044Z" fill="black"/>
<path d="M505.539 642.044H528.825V667.088H505.539V642.044Z" fill="black"/>
</g>
<defs>
<clipPath id="clip0_453_11">
<rect width="866" height="837" fill="white"/>
</clipPath>
</defs>
</svg>
