<svg xmlns="http://www.w3.org/2000/svg" xmlns:xlink="http://www.w3.org/1999/xlink" viewBox="0 0 1058.22 240.82"><defs><style>.cls-1{isolation:isolate;}.cls-2{fill:url(#Degradado_sin_nombre_89);}.cls-3{fill:url(#Degradado_sin_nombre_89-2);}.cls-4{fill:url(#Degradado_sin_nombre_89-3);}.cls-5{fill:url(#Degradado_sin_nombre_89-4);}.cls-6{fill:url(#Degradado_sin_nombre_89-5);}.cls-7{fill:url(#Degradado_sin_nombre_89-6);}.cls-8{fill:url(#Degradado_sin_nombre_76);}.cls-9{fill:url(#Degradado_sin_nombre_89-7);}.cls-10,.cls-14,.cls-15,.cls-19,.cls-24{fill:none;}.cls-11{fill:#d60b52;stroke:#d0215d;}.cls-11,.cls-12,.cls-14,.cls-15,.cls-16,.cls-19,.cls-20,.cls-24{stroke-miterlimit:10;}.cls-12{fill:url(#Degradado_sin_nombre_33);stroke:url(#Degradado_sin_nombre_33-2);}.cls-13{fill:#ededed;}.cls-14{stroke:#e30613;}.cls-15{stroke:#9c284a;}.cls-16{fill:#1d1d1b;stroke:#46434a;}.cls-17{fill:#e3c4a6;}.cls-18{fill:#c37f50;}.cls-19{stroke:#c37f50;}.cls-20{fill:url(#Degradado_sin_nombre_33-3);stroke:url(#Degradado_sin_nombre_33-4);}.cls-21{fill:#cbbba0;opacity:0.68;mix-blend-mode:darken;}.cls-22{fill:#e6332a;opacity:0.86;}.cls-23{fill:#fff;}.cls-24{stroke:#fff;stroke-linecap:round;stroke-width:2px;}.cls-25{fill:#d7cd80;}.cls-26{fill:#fef193;}.cls-27{fill:url(#Degradado_sin_nombre_89-8);}.cls-28{fill:url(#Degradado_sin_nombre_89-9);}.cls-29{fill:url(#Degradado_sin_nombre_89-10);}.cls-30{fill:url(#Degradado_sin_nombre_89-11);}.cls-31{fill:url(#Degradado_sin_nombre_89-12);}.cls-32{fill:url(#Degradado_sin_nombre_117);}.cls-33{fill:url(#Degradado_sin_nombre_117-2);}.cls-34{fill:url(#Degradado_sin_nombre_117-3);}.cls-35{fill:url(#Degradado_sin_nombre_117-4);}.cls-36{fill:url(#Degradado_sin_nombre_117-5);}.cls-37{fill:url(#Degradado_sin_nombre_117-6);}</style><linearGradient id="Degradado_sin_nombre_89" x1="155.76" y1="11.18" x2="182.36" y2="11.18" gradientUnits="userSpaceOnUse"><stop offset="0" stop-color="#d0215d"/><stop offset="0.48" stop-color="#ce215d"/><stop offset="0.69" stop-color="#c71f5d"/><stop offset="0.84" stop-color="#ba1d5c"/><stop offset="0.97" stop-color="#a91a5b"/><stop offset="1" stop-color="#a3195b"/></linearGradient><linearGradient id="Degradado_sin_nombre_89-2" x1="253.66" y1="-259.08" x2="277.74" y2="-259.08" gradientTransform="matrix(0.96, 0.29, -0.29, 0.96, -122.81, 187.95)" xlink:href="#Degradado_sin_nombre_89"/><linearGradient id="Degradado_sin_nombre_89-3" x1="-50.76" y1="288.15" x2="-26.52" y2="288.15" gradientTransform="translate(64.11 -265.3) rotate(-20.04)" xlink:href="#Degradado_sin_nombre_89"/><linearGradient id="Degradado_sin_nombre_89-4" x1="-246.77" y1="438.35" x2="-225.75" y2="438.35" gradientTransform="translate(46.55 -460.68) rotate(-33.74)" xlink:href="#Degradado_sin_nombre_89"/><linearGradient id="Degradado_sin_nombre_89-5" x1="-513.39" y1="560.38" x2="-493.11" y2="560.38" gradientTransform="matrix(0.64, -0.77, 0.77, 0.64, -42.8, -685.77)" xlink:href="#Degradado_sin_nombre_89"/><linearGradient id="Degradado_sin_nombre_89-6" x1="-774.78" y1="607.32" x2="-756.42" y2="607.32" gradientTransform="translate(-188.45 -857.01) rotate(-65.79)" xlink:href="#Degradado_sin_nombre_89"/><linearGradient id="Degradado_sin_nombre_76" x1="169.35" y1="240.82" x2="169.35" y2="121.95" gradientUnits="userSpaceOnUse"><stop offset="0" stop-color="#948856"/><stop offset="0.11" stop-color="#afa25d"/><stop offset="0.25" stop-color="#ccbd64"/><stop offset="0.4" stop-color="#e2d36a"/><stop offset="0.57" stop-color="#f3e26e"/><stop offset="0.75" stop-color="#fceb70"/><stop offset="1" stop-color="#ffee71"/></linearGradient><linearGradient id="Degradado_sin_nombre_89-7" x1="167.85" y1="154.97" x2="167.85" y2="20.12" xlink:href="#Degradado_sin_nombre_89"/><linearGradient id="Degradado_sin_nombre_33" x1="297.51" y1="137.16" x2="336.11" y2="137.16" gradientUnits="userSpaceOnUse"><stop offset="0" stop-color="#d0215d"/><stop offset="1" stop-color="#f3f3f3"/></linearGradient><linearGradient id="Degradado_sin_nombre_33-2" x1="297.01" y1="137.16" x2="336.61" y2="137.16" xlink:href="#Degradado_sin_nombre_33"/><linearGradient id="Degradado_sin_nombre_33-3" x1="-1320.08" y1="136.73" x2="-1281.48" y2="136.73" gradientTransform="matrix(-1, 0, 0, 1, -1280.98, 0)" xlink:href="#Degradado_sin_nombre_33"/><linearGradient id="Degradado_sin_nombre_33-4" x1="-1320.58" y1="136.73" x2="-1280.98" y2="136.73" gradientTransform="matrix(-1, 0, 0, 1, -1280.98, 0)" xlink:href="#Degradado_sin_nombre_33"/><linearGradient id="Degradado_sin_nombre_89-8" x1="-915.9" y1="604.65" x2="-900.84" y2="604.65" gradientTransform="translate(-287.4 -924.75) rotate(-73.99)" xlink:href="#Degradado_sin_nombre_89"/><linearGradient id="Degradado_sin_nombre_89-9" x1="254.77" y1="-493.16" x2="275.79" y2="-493.16" gradientTransform="translate(-252.36 296.42) rotate(33.93)" xlink:href="#Degradado_sin_nombre_89"/><linearGradient id="Degradado_sin_nombre_89-10" x1="-1601.78" y1="-760.13" x2="-1581.5" y2="-760.13" gradientTransform="matrix(-0.64, -0.77, -0.77, 0.64, -1328.92, -685.77)" xlink:href="#Degradado_sin_nombre_89"/><linearGradient id="Degradado_sin_nombre_89-11" x1="-1447.75" y1="-981.28" x2="-1429.39" y2="-981.28" gradientTransform="matrix(-0.37, -0.93, -0.93, 0.37, -1157.23, -879.8)" xlink:href="#Degradado_sin_nombre_89"/><linearGradient id="Degradado_sin_nombre_89-12" x1="-128.53" y1="-1059.73" x2="-113.46" y2="-1059.73" gradientTransform="translate(-707.81 486.88) rotate(76.22)" xlink:href="#Degradado_sin_nombre_89"/><linearGradient id="Degradado_sin_nombre_117" x1="362.38" y1="120.08" x2="491.64" y2="120.08" gradientUnits="userSpaceOnUse"><stop offset="0" stop-color="#e6007e"/><stop offset="0.44" stop-color="#e4017d"/><stop offset="0.63" stop-color="#dd0379"/><stop offset="0.77" stop-color="#d00873"/><stop offset="0.88" stop-color="#bf0f69"/><stop offset="0.98" stop-color="#a8175e"/><stop offset="1" stop-color="#a3195b"/></linearGradient><linearGradient id="Degradado_sin_nombre_117-2" x1="501.76" y1="140.81" x2="612.99" y2="140.81" xlink:href="#Degradado_sin_nombre_117"/><linearGradient id="Degradado_sin_nombre_117-3" x1="626.15" y1="141.02" x2="732.55" y2="141.02" xlink:href="#Degradado_sin_nombre_117"/><linearGradient id="Degradado_sin_nombre_117-4" x1="745.7" y1="141.32" x2="851.49" y2="141.32" xlink:href="#Degradado_sin_nombre_117"/><linearGradient id="Degradado_sin_nombre_117-5" x1="861.6" y1="141.32" x2="967.4" y2="141.32" xlink:href="#Degradado_sin_nombre_117"/><linearGradient id="Degradado_sin_nombre_117-6" x1="973.47" y1="122.91" x2="1058.22" y2="122.91" xlink:href="#Degradado_sin_nombre_117"/></defs><g class="cls-1"><g id="Capa_2" data-name="Capa 2"><g id="Capa_2-2" data-name="Capa 2"><path class="cls-2" d="M166.5,1.15s-8.93,15.7-10.25,17.76.22,3.46,2,3.46h20.5c1.78,0,5.17,0,2.79-4.19s-11-17-11-17A2.32,2.32,0,0,0,166.5,1.15Z"/><path class="cls-3" d="M207.81,9.14s-11.91,11.2-13.6,12.63-.73,3.06.81,3.53l17.74,5.46c1.53.47,4.47,1.38,3.52-2.88s-5-17.67-5-17.67A2.09,2.09,0,0,0,207.81,9.14Z"/><path class="cls-4" d="M121.21,10.87S118.47,27.09,118,29.26s1.27,2.89,2.79,2.34l17.55-6.4c1.52-.55,4.42-1.61,1.08-4.45S124.63,9.62,124.63,9.62A2.1,2.1,0,0,0,121.21,10.87Z"/><path class="cls-5" d="M87.45,29.6s1,14.23,1,16.16,1.67,2.18,2.83,1.4l13.47-9c1.17-.78,3.4-2.27,0-4s-14.73-6.34-14.73-6.34A1.82,1.82,0,0,0,87.45,29.6Z"/><path class="cls-6" d="M63.21,55.52s4.92,12.85,5.49,14.62,2.15,1.55,3,.5l9.92-12.06c.86-1,2.51-3-1.11-3.67s-15.37-1.75-15.37-1.75A1.77,1.77,0,0,0,63.21,55.52Z"/><path class="cls-7" d="M44.41,89.08s7.36,10.07,8.28,11.48,2.24.85,2.74-.27l5.81-12.91c.5-1.12,1.46-3.26-1.85-2.94s-13.84,2.13-13.84,2.13A1.59,1.59,0,0,0,44.41,89.08Z"/><path class="cls-8" d="M293.08,150.14c0,63.24-58.85,90.68-122.08,90.68S45.61,216.14,45.61,152.91c4-11.13,15.92-18.55,33.09-23.36,1.51-.43,3.06-.83,4.63-1.21a29.92,29.92,0,0,0,32.51-5h0c2.63-.25,5.31-.45,8-.63,5-.34,10.18-.59,15.46-.77a21.66,21.66,0,0,0-5.48,14.1c0,14.77,16.38,26.75,36.61,26.75,18.62,0,34-10.16,36.29-23.31a19.65,19.65,0,0,0,.31-3.44,21.65,21.65,0,0,0-5.39-14c4.38.13,8.74.33,13,.58,1.87.09,3.71.2,5.53.34a29.82,29.82,0,0,0,20.44,8.07,29.52,29.52,0,0,0,13.64-3.31c2,.48,4,1,5.94,1.55C274.81,133.49,286.41,140,293.08,150.14Z"/><path class="cls-9" d="M291.58,152.21c-6.68-10.14-18.28-16.66-32.82-20.84q-2.9-.84-5.93-1.55A29.9,29.9,0,0,0,269.1,103.2a28.28,28.28,0,0,0-.29-4.13c-.05-.34-.09-.65-.16-1s-.16-.9-.27-1.35a18.18,18.18,0,0,0-.49-1.93c-.18-.63-.38-1.26-.61-1.89a25.72,25.72,0,0,0-1.35-3.1,7.76,7.76,0,0,0-.45-.86c-.22-.43-.47-.85-.72-1.26a12.86,12.86,0,0,0-.76-1.21,12.12,12.12,0,0,0-.86-1.17,9.94,9.94,0,0,0-.87-1.12c-.45-.54-.92-1.08-1.4-1.58a0,0,0,0,0,0,0c-.47-.52-1-1-1.51-1.49A26.76,26.76,0,0,0,256,78.45L255.3,78c-.2-.13-.41-.27-.61-.38-.4-.24-.83-.49-1.26-.72a29.44,29.44,0,0,0-5.37-2.27c-.43-.15-.88-.27-1.33-.38a30.18,30.18,0,0,0-3-.63c-.94-.13-1.91-.25-2.9-.29-.54,0-1.08,0-1.64,0s-1.1,0-1.64,0c-1,0-1.95.16-2.9.29s-2,.38-3,.63c-.45.11-.9.23-1.33.38a29.74,29.74,0,0,0-5.37,2.27c-.43.23-.85.48-1.26.72-.2.11-.4.25-.61.38l-.67.45A28.3,28.3,0,0,0,219,81.08c-.52.48-1,1-1.51,1.49a0,0,0,0,0,0,0c-.47.5-.94,1-1.39,1.58a10,10,0,0,0-.88,1.12,10.55,10.55,0,0,0-.85,1.17c-.27.4-.54.79-.77,1.21a29.9,29.9,0,0,0-2.52,5.22c-.2.56-.38,1.1-.54,1.66s-.33,1.15-.47,1.73a15.16,15.16,0,0,0-.36,1.78c-.07.34-.11.65-.16,1a28.28,28.28,0,0,0-.29,4.13,29.8,29.8,0,0,0,9.49,21.85c-1.82-.13-3.67-.24-5.53-.33-4.29-.25-8.66-.45-13-.59-6.43-7.64-18-12.74-31.2-12.74s-24.66,5-31.13,12.63c-5.29.18-10.46.43-15.47.76q-4.08.27-8,.63a29.8,29.8,0,0,0,9.86-22.21c0-.4,0-.78,0-1.19a4.63,4.63,0,0,0-.05-.83,18.15,18.15,0,0,0-.24-2.45c-.07-.45-.14-.88-.23-1.3a8.89,8.89,0,0,0-.27-1.22c-.09-.38-.18-.74-.29-1.1-.2-.74-.45-1.48-.7-2.2s-.6-1.55-.94-2.29c-.27-.54-.54-1.08-.83-1.6a3.94,3.94,0,0,0-.41-.72,15.13,15.13,0,0,0-.92-1.53c-.18-.27-.38-.56-.58-.83a5.93,5.93,0,0,0-.45-.63,13.1,13.1,0,0,0-.88-1.12c-.38-.48-.79-.93-1.21-1.37a2.61,2.61,0,0,0-.23-.25,9.63,9.63,0,0,0-1-1c-.47-.48-1-.9-1.48-1.33a22.66,22.66,0,0,0-2-1.57c-.51-.36-1-.7-1.59-1-.41-.27-.84-.49-1.26-.72A21.65,21.65,0,0,0,106,75.64a11,11,0,0,0-1.17-.47,28.88,28.88,0,0,0-9.15-1.84.15.15,0,0,0-.09,0h-.2c-.34,0-.7,0-1,0A29.92,29.92,0,0,0,64.39,103.2c0,.23,0,.45,0,.68a.53.53,0,0,0,0,.16v.17c0,.68.07,1.35.14,2a11.1,11.1,0,0,0,.13,1.28c.07.34.11.67.18,1s.11.65.18,1,.16.65.25,1a19.88,19.88,0,0,0,.76,2.56c.16.5.34,1,.54,1.44.11.31.25.63.38.92s.23.52.36.77.41.81.63,1.21.3.54.45.81c.32.54.65,1.08,1,1.6a32.32,32.32,0,0,0,2.18,2.87,6.29,6.29,0,0,0,.43.47c.34.39.7.77,1.08,1.15s.74.74,1.14,1.08a25.28,25.28,0,0,0,2.23,1.84c.47.34.94.68,1.42,1a11.25,11.25,0,0,0,1.14.7,8.29,8.29,0,0,0,1,.58c.59.32,1.17.63,1.78.9-1.57.38-3.12.79-4.63,1.22C60,136.43,48.07,143.85,44.11,155,44.11,91.74,82,20.12,167.86,20.12,251.1,20.12,291.58,89.29,291.58,152.21Z"/><path class="cls-10" d="M124.22,103.2a29.8,29.8,0,0,1-9.86,22.21h0a29.91,29.91,0,1,1,9.89-22.21Z"/><path class="cls-10" d="M269.1,103.2a29.92,29.92,0,1,1-29.92-29.92A29.9,29.9,0,0,1,269.1,103.2Z"/><path class="cls-11" d="M301.18,162.41c-5.06-3.62-9.44-9.08-9.6-16.38-.11-6.3,2.41-13.72,5.93-20.42,0,5,.12,9.74.34,14.08v.09c.18,3.62.41,7,.7,9.91a.22.22,0,0,0,0,.11C299.22,156.39,300.14,161,301.18,162.41Z"/><path class="cls-12" d="M334.09,148.12c.49,10.47-11.92,19.62-19.56,19.62-2.67,0-7.89-1.62-12.65-4.86h0l-.67-.47c-1-1.41-2-6-2.61-12.61a.22.22,0,0,1,0-.11c-.29-2.95-.52-6.29-.7-9.91v-.09c-.22-4.34-.34-9.11-.34-14.08,5.44-10.38,13.22-19,17-19,5.33,0,12.59,0,14,7.26,1.69,9,7.62,6.47,7.62,15.82C336.11,135.73,333.66,138.63,334.09,148.12Z"/><path class="cls-13" d="M128.51,105.71a32.49,32.49,0,0,1-10.57,24.06h0a31.79,31.79,0,0,1-34.83,5.41,32.33,32.33,0,1,1,45.43-29.47Z"/><path class="cls-13" d="M271.24,105.71a32.49,32.49,0,0,1-10.57,24.06h0a31.81,31.81,0,0,1-34.84,5.41,32.33,32.33,0,1,1,45.43-29.47Z"/><path class="cls-14" d="M301.88,162.88h0a1,1,0,0,1-.67-.47"/><path class="cls-15" d="M297.85,139.69c.07-5.38,6.14-9.74,13.6-9.74"/><path class="cls-15" d="M299.69,145.63c0-2.35,8-4.25,17.9-4.25"/><path class="cls-15" d="M298.57,149.8c.23,2.14,7,3.85,15.4,3.85"/><path class="cls-14" d="M293.7,233.49h-2.11"/><circle class="cls-16" cx="99.27" cy="105.92" r="23.35"/><circle class="cls-16" cx="236.07" cy="105.92" r="23.35"/><path class="cls-17" d="M206.77,137.65c0,15.08-15.28,27.21-37.26,27.21-19.43,0-37.27-12.13-37.27-27.21s17.84-27.41,37.27-27.41S206.77,122.56,206.77,137.65Z"/><path class="cls-18" d="M192.46,139.25c-17.1,15.58-42,8.25-46.81-.47C145.91,136.26,168.41,111,192.46,139.25Z"/><polyline class="cls-19" points="132.24 139.1 138.23 140.04 146.01 139.1"/><polyline class="cls-19" points="191.31 139.44 200.98 140.38 207.03 139.5"/><path class="cls-11" d="M35.43,162c5.06-3.62,9.44-9.08,9.6-16.39.11-6.29-2.4-13.71-5.93-20.41,0,5-.12,9.74-.34,14.08v.09c-.18,3.61-.41,7-.7,9.91a.22.22,0,0,1,0,.11C37.39,156,36.47,160.57,35.43,162Z"/><path class="cls-20" d="M2.52,147.69C2,158.16,14.44,167.31,22.08,167.31c2.67,0,7.89-1.62,12.66-4.86h0l.67-.47c1-1.41,2-6,2.61-12.61a.22.22,0,0,0,0-.11c.29-2.95.52-6.3.7-9.91v-.09c.22-4.34.34-9.11.34-14.08-5.44-10.38-13.22-19-17-19-5.33,0-12.59,0-14,7.26-1.69,9-7.62,6.48-7.62,15.83C.5,135.3,3,138.2,2.52,147.69Z"/><path class="cls-14" d="M35.43,162a1,1,0,0,1-.67.47h0"/><path class="cls-15" d="M25.16,129.52c7.46,0,13.53,4.36,13.6,9.74"/><path class="cls-21" d="M208.38,139.66c0,15.08-15.26,27.22-37.27,27.22-14,0-27.08-6.27-33.38-15.4,6.7,8.12,19,13.56,32,13.56,22,0,37.27-12.14,37.27-27.22A21,21,0,0,0,203.12,126,21.49,21.49,0,0,1,208.38,139.66Z"/><path class="cls-15" d="M36.92,145.2c0-2.35-8-4.25-17.9-4.25"/><path class="cls-15" d="M22.64,153.22c8.36,0,15.17-1.71,15.4-3.85"/><ellipse class="cls-22" cx="75.92" cy="140.95" rx="10.86" ry="4.13"/><ellipse class="cls-22" cx="264.35" cy="140.95" rx="10.86" ry="4.13"/><circle class="cls-23" cx="83.22" cy="91.65" r="6.51"/><circle class="cls-23" cx="218.91" cy="92.04" r="6.51"/><circle class="cls-23" cx="111.99" cy="121.49" r="4.91"/><circle class="cls-23" cx="248.58" cy="123.09" r="4.91"/><circle class="cls-23" cx="272.6" cy="139.45" r="1.35"/><circle class="cls-23" cx="276.43" cy="137.55" r="1.64"/><path class="cls-24" d="M148.05,30.57s-6,0-19.23,4.76c-14,5.05-19.84,10-19.84,10"/><circle class="cls-23" cx="101.57" cy="50.61" r="2.02"/><path class="cls-25" d="M119.87,216.94l5.11,7.38a4.75,4.75,0,0,0,6.62,1.2l7.52-6.16"/><path class="cls-26" d="M59.27,174.76l-.34,9a4.75,4.75,0,0,0,4.57,4.93l9.71-.41"/><path class="cls-25" d="M163.36,220l6.09,6.58a4.76,4.76,0,0,0,6.73.26l6.58-7.16"/><path class="cls-25" d="M207.27,217.77l7.89,4.28a4.76,4.76,0,0,0,6.45-1.91l3.94-8.89"/><path class="cls-26" d="M83.22,202.17l3.14,8.41a4.76,4.76,0,0,0,6.12,2.79l8.81-4.12"/><path class="cls-26" d="M270.27,180.4l8.71-2.16a4.75,4.75,0,0,0,3.47-5.76l-3.1-9.22"/><path class="cls-26" d="M245,204.34l9.17,2c2.68.6,5.41-1.41,6.09-4.48l1.7-11.49"/><path class="cls-27" d="M37.45,115s7.14,7.32,8.06,8.35,1.92.42,2.19-.54l3.2-11.16c.28-1,.81-2.81-1.84-2.17s-11,3.35-11,3.35A1.3,1.3,0,0,0,37.45,115Z"/><path class="cls-28" d="M245.75,27.58S233,33.93,231.2,34.69s-1.38,2.37-.22,3.16l13.44,9c1.17.79,3.39,2.28,3.68-1.51s.27-16,.27-16A1.82,1.82,0,0,0,245.75,27.58Z"/><path class="cls-29" d="M276.31,57.35S271.4,70.21,270.83,72s-2.15,1.55-3,.5L257.9,60.41c-.86-1-2.51-3,1.11-3.67S274.38,55,274.38,55A1.75,1.75,0,0,1,276.31,57.35Z"/><path class="cls-30" d="M293.62,92.91s-7.79,9.73-8.77,11.1-2.28.75-2.74-.39l-5.23-13.15c-.45-1.14-1.32-3.32,2-2.86s13.74,2.73,13.74,2.73A1.6,1.6,0,0,1,293.62,92.91Z"/><path class="cls-31" d="M297.79,114.26s-9.84-2.8-11.14-3.24-1.88.58-1.64,1.56l2.76,11.27c.24,1,.7,2.85,2.68,1s7.88-8.36,7.88-8.36A1.31,1.31,0,0,0,297.79,114.26Z"/><path class="cls-32" d="M380.38,45.94l37.43.21q29.32,0,51.58,21.13t22.25,52q0,30.86-21.75,52.9T417.2,194.22h-37q-12.33,0-15.37-5.06-2.43-4.24-2.43-12.95V63.74a59.21,59.21,0,0,1,.3-7.08,16.6,16.6,0,0,1,1.93-5.26Q367.43,45.94,380.38,45.94ZM444.1,147.59q11.73-10.82,11.74-27.21T444.41,93A37.38,37.38,0,0,0,417.6,82H398.18v76.46h19.63Q432.36,158.41,444.1,147.59Z"/><path class="cls-33" d="M596.2,101.08q-16.8-15.73-38.6-15.69t-38.87,15.78q-17,15.8-17,40.06a50.86,50.86,0,0,0,8.6,29,56.87,56.87,0,0,0,21.15,19.44,54.67,54.67,0,0,0,25.86,6.56,56.78,56.78,0,0,0,25.78-6.17c8.33-4.09,15.34-10.48,21.16-19.21A52.39,52.39,0,0,0,613,141Q613,116.74,596.2,101.08Zm-20.32,47.33,4.59,5.33c2.38,2.73,3.57,5.11,3.57,7s-1.19,4.28-3.57,7-4.45,4-6.09,4-3.7-1.36-6.08-4.14L561.69,160,557.33,155l-4.45,5.11-6.65,7.62c-2.38,2.78-4.41,4.14-6,4.14s-3.66-1.36-6.08-4-3.62-5.07-3.62-7,1.19-4.32,3.57-7l4.67-5.42,6.44-7.45-6.44-7.44L534.06,128c-2.38-2.73-3.57-5.11-3.57-7s1.19-4.32,3.62-7,4.45-4.15,6.08-4.15,3.66,1.37,6,4.15l6.56,7.62,4.54,5.24,4.5-5.28,6.47-7.58c2.38-2.78,4.41-4.15,6.08-4.15s3.66,1.37,6.09,4.15S584,119,584,121s-1.19,4.32-3.57,7l-4.41,5.11-6.7,7.75Z"/><path class="cls-34" d="M685.42,87.82q20.24,0,33.68,15.47T732.55,141v35.61a59.15,59.15,0,0,1-.3,7,16.44,16.44,0,0,1-1.72,5.16q-2.84,5.46-15.78,5.47-14.36,0-16.58-7.49Q697,183.3,697,176.41v-35.6q0-8.3-4.75-12.94t-12.75-4.65q-8,0-12.94,4.85t-5,12.74v35.81a59.15,59.15,0,0,1-.3,7,14.21,14.21,0,0,1-1.92,5.16q-2.64,5.46-15.58,5.47-12.74,0-15.58-5.47a18.63,18.63,0,0,1-1.71-5.36,56.76,56.76,0,0,1-.31-7v-71.6a54.61,54.61,0,0,1,.31-6.78,14.34,14.34,0,0,1,1.92-5.16q2.82-5.06,15.57-5.05,12.34,0,15.17,4.65a16,16,0,0,1,2,8.29,20.83,20.83,0,0,1,3.64-4.05,36.55,36.55,0,0,1,5.46-4.24A26.49,26.49,0,0,1,685.42,87.82Z"/><path class="cls-35" d="M851.49,128.37q0,12.45-6.17,18.41t-13.65,6H783.73c0,3.77,2.22,6.95,6.67,9.5a26.48,26.48,0,0,0,13.35,3.85q11.73,0,18.41-2.43l2.23-.81a20.39,20.39,0,0,1,8.09-2.22q6.46,0,11.12,9.1,2.63,5.46,2.63,9.3,0,18-43.08,18-15,0-26.6-5.16t-18.11-13.66a58.17,58.17,0,0,1-12.74-36.61q0-25.49,16.49-40.76t41.16-15.27q28.11,0,41.26,19.82A41.11,41.11,0,0,1,851.49,128.37Zm-42.68,6q7.68,0,7.69-6.47a9.13,9.13,0,0,0-3.54-7.49q-3.56-2.82-10.12-2.83t-13,5.36c-4.32,3.58-6.48,7.38-6.48,11.43Z"/><path class="cls-36" d="M967.4,128.37q0,12.45-6.17,18.41t-13.66,6H899.63c0,3.77,2.23,6.95,6.68,9.5a26.48,26.48,0,0,0,13.35,3.85q11.73,0,18.41-2.43l2.22-.81a20.48,20.48,0,0,1,8.09-2.22q6.48,0,11.13,9.1,2.63,5.46,2.63,9.3,0,18-43.09,18-15,0-26.6-5.16t-18.1-13.66a58.12,58.12,0,0,1-12.75-36.61q0-25.49,16.49-40.76t41.17-15.27q28.11,0,41.26,19.82A41.19,41.19,0,0,1,967.4,128.37Zm-42.68,6q7.68,0,7.68-6.47a9.13,9.13,0,0,0-3.54-7.49q-3.54-2.82-10.11-2.83t-13,5.36c-4.32,3.58-6.47,7.38-6.47,11.43Z"/><path class="cls-37" d="M1040.42,123.62l-13.15-.81v27.91c0,3.65.57,6.27,1.72,7.89s3.3,2.43,6.48,2.43a66.48,66.48,0,0,1,7.28.3,14.55,14.55,0,0,1,5.36,1.93q4.65,2.63,4.65,13.55,0,12.75-5.66,15.57a18.66,18.66,0,0,1-5.36,1.72,54.72,54.72,0,0,1-6.78.31q-21,0-32-9.51t-10.92-32.16V122.81a52.71,52.71,0,0,1-8.3.61A9.3,9.3,0,0,1,976.4,120q-2.94-3.44-2.93-11.73t1-12a10.84,10.84,0,0,1,2.83-5.36,12.41,12.41,0,0,1,8.09-2.63l6.68.81V68.19a56.53,56.53,0,0,1,.3-6.87,12.71,12.71,0,0,1,1.92-4.86q2.63-5.05,15.58-5.06,13.75,0,16.38,7.49c.68,2.16,1,5.6,1,10.32V89q8.91-.81,13.45-.81a58.22,58.22,0,0,1,6.88.3,16.56,16.56,0,0,1,5.36,1.92q5.26,2.64,5.26,15.58,0,12.75-5.46,15.58a19.11,19.11,0,0,1-5.36,1.72A59.46,59.46,0,0,1,1040.42,123.62Z"/></g></g></g></svg>