<svg xmlns="http://www.w3.org/2000/svg" width="50" viewBox="0 0 126.61 117.38"><defs><style>.cls-1{stroke:#1d1d1b;stroke-miterlimit:10;stroke-width:2px;}</style></defs><g id="Capa_2" data-name="Capa 2"><g id="Capa_1-2" data-name="Capa 1"><path class="cls-1" d="M121.3,30.63c-.79-2.37-2.09-3.4-4.68-3.22A70.17,70.17,0,0,0,82.84,38.49c-3.72,2.37-7.16,5.17-10.83,7.84-.82-2.27-1.6-4.61-2.52-6.89A85.16,85.16,0,0,0,41.12,2.19c-2-1.48-3.7-1.7-5.63.05-3.43,3.1-7.26,5.82-10.39,9.19C5.92,32-1.68,56.48,1.83,84.31c1.22,9.58,5.25,18,12.84,24.41,11.9,10.07,35.36,10.73,48.67-1.13.76.56,1.35,1,2,1.43,11.4,8.27,24.57,8.8,35.43.58a52.24,52.24,0,0,0,11.81-12.69C126.14,76.34,129.25,54.17,121.3,30.63ZM59.09,104.34A41.58,41.58,0,0,1,51,109.22c7.89-16.25,7.07-33.36,6-50.4-.48-7.33-2-14.61-3-21.89-.05-.37-.15-.73-.22-1.1-.42-1.77-.92-3.74-3.28-3.13-2.07.54-2.07,2.15-1.64,4.21,3.63,18,5,36.06,2.37,54.31-.81,5.69-2.26,11.22-5.79,15.93C41.19,112.86,35.25,112.8,31,107c-3.65-5-4.9-10.82-5.86-16.77-.24-1.45-.43-2.92-.57-4.38-.17-1.69-.84-2.89-2.74-2.76s-2.46,1.43-2.27,3.09c.87,7.92,2.16,15.72,6.75,23.16A25.71,25.71,0,0,1,14,100.84C7.44,92.69,5.8,83,5.89,73,6.16,47.61,15.57,26.29,34.65,9.4c1.11-1,2.28-1.88,3.64-3A81.46,81.46,0,0,1,63.5,38.48a82.78,82.78,0,0,1,7.07,39.41C69.94,88,67.28,97.48,59.09,104.34Zm60.19-37a68.67,68.67,0,0,1-13.82,31c-4.6,5.86-10.26,10.45-17.88,11.71-2.36.4-4.84.06-7.56.06C97.24,97.38,106.38,79.58,114.31,61c.29-.68.83-1.46.7-2.07-.21-1-.68-2.71-1.33-2.85-1-.21-2.29.51-3.21,1.17-.55.41-.65,1.47-1,2.24C104.07,73,97.14,85.73,87.45,96.69a48,48,0,0,1-11.19,8.86c-3.65,2.2-6.61,1.11-9.11-2.21,8.29-11.75,9.39-24.91,8.19-38.54-.33-3.67-1.1-7.31-1.55-11a3.27,3.27,0,0,1,.72-2.41,68.15,68.15,0,0,1,40.37-18.79,2.91,2.91,0,0,1,2.22,1.59A68.94,68.94,0,0,1,119.28,67.3Z"/><path class="cls-1" d="M32.14,21.07c-.89,2.91-1.62,5.26-2.31,7.63a142.24,142.24,0,0,0-5.27,30.09C24.44,60.5,24.1,62,22,62s-2.56-1.43-2.44-3.19A140.36,140.36,0,0,1,27,21.05c.32-.9,2-1.61,3.13-1.78C30.74,19.17,31.54,20.48,32.14,21.07Z"/><path class="cls-1" d="M104.53,41.13a117.26,117.26,0,0,0-20.68,21.2,21.5,21.5,0,0,1-2.7,2.47c-1-.78-2.12-1.2-2.28-1.87a4,4,0,0,1,.55-3c3-3.82,6.07-7.71,9.49-11.22,3.93-4,8.23-7.68,12.41-11.48,1.33-1.22,2.83-2,4.31-.27S105.9,40.06,104.53,41.13Z"/></g></g></svg>