<svg xmlns="http://www.w3.org/2000/svg" width="50" viewBox="0 0 103.61 135.5"><defs><style>.cls-1{stroke:#1d1d1b;stroke-miterlimit:10;}</style></defs><g id="Capa_2" data-name="Capa 2"><g id="Capa_1-2" data-name="Capa 1"><path class="cls-1" d="M102.39,56.38C100.28,46,93.67,39.5,83.92,36c-3.26-1.17-6.67-1.91-10.29-2.93,1.28-1,2.58-1.92,3.8-2.95,5.25-4.4,9.26-9.56,9.74-16.72.27-4-1.77-5.74-5.84-5.28A47.72,47.72,0,0,0,63,14.08,25.57,25.57,0,0,0,54.06.5h-4.5a56,56,0,0,0-5.54,6c-1.53,2.21-2.48,4.83-3.74,7.39A47.68,47.68,0,0,0,22.76,8.2c-4.69-.58-6.7,1-6.28,5.73.6,6.63,4.29,11.54,9.15,15.72,1.37,1.18,2.85,2.22,4.47,3.48-3.09.82-6,1.46-8.76,2.34C5.31,40.48-.83,52.15.73,67.31,3.36,92.85,16,113,36,128.54c3.75,2.91,8.65,4.35,13,6.46h5.5c12.62-3.5,21.28-12.33,29.12-22a86.68,86.68,0,0,0,18.11-37.51C103.07,69.13,103.68,62.77,102.39,56.38ZM68.5,20.19c3-1.12,6-2.43,9-3.66.15.29.29.59.44.88-3.62,6.18-9.3,9.77-15.86,12.42C62.44,25.29,64,21.82,68.5,20.19ZM51.79,9.54c5.2,5.1,5.27,15.2,0,20.93C46.59,24.93,46.62,14.84,51.79,9.54ZM25.47,16.77a28.8,28.8,0,0,1,14.1,6.45C41,24.48,41,27.3,41.73,29.46,36.41,28.81,28.27,22.56,25.47,16.77ZM93.52,76.25c-5,18.7-15,34.16-30.43,45.88-8.67,6.6-14,6.68-22.51,0-17-13.27-28.12-30.41-31.5-52a43.82,43.82,0,0,1,.07-12.37c.8-6,4.53-10.18,9.91-12.9a46,46,0,0,1,16.76-4.35c5.3-.5,10.64-.56,16-.81,9.09.08,18.14.35,26.94,2.85s15,7.33,16.18,16.84A43.63,43.63,0,0,1,93.52,76.25Z"/><path class="cls-1" d="M40.05,87.17c0,1.25.05,2.49,0,3.74-.13,2.63-1.62,4.17-3.95,4.17a3.86,3.86,0,0,1-4-4.1c-.08-2.49-.08-5,0-7.48s1.57-4,3.8-4a3.86,3.86,0,0,1,4.16,4c.09,1.24,0,2.49,0,3.74Z"/><path class="cls-1" d="M71.55,87.44c0,1.25.07,2.5,0,3.74a3.8,3.8,0,0,1-4,3.89,3.74,3.74,0,0,1-4-3.88c-.13-2.57-.13-5.15,0-7.72a3.82,3.82,0,0,1,4.11-4c2.26,0,3.72,1.51,3.87,4,.07,1.33,0,2.66,0,4Z"/><path class="cls-1" d="M55.6,115.74a3.59,3.59,0,0,1-3.88,3.34A3.52,3.52,0,0,1,48,115.59q-.14-4.49,0-9a3.84,3.84,0,0,1,3.74-3.6,4,4,0,0,1,3.87,3.51,4.1,4.1,0,0,1,0,.5v4h0C55.62,112.59,55.72,114.17,55.6,115.74Z"/><path class="cls-1" d="M24.08,68a3.73,3.73,0,0,1-3.84,3.47c-2-.13-3.6-1.16-3.73-3.3a85.93,85.93,0,0,1,0-9.22,3.9,3.9,0,0,1,4-3.42,3.92,3.92,0,0,1,3.63,3.74c.08,1.41,0,2.83,0,4.24h0C24.1,65,24.18,66.5,24.08,68Z"/><path class="cls-1" d="M55.63,67.7a3.83,3.83,0,0,1-7.65,0c-.07-1.4,0-2.82,0-4.23s-.07-2.83,0-4.24a4,4,0,0,1,3.94-3.7,3.83,3.83,0,0,1,3.67,3.69C55.7,62.05,55.71,64.88,55.63,67.7Z"/><path class="cls-1" d="M87.07,68.28c-.15,2.12-1.79,3.13-3.82,3.19a3.81,3.81,0,0,1-3.74-3.6,4.13,4.13,0,0,1,0-.5v-4h0c0-1.41-.07-2.83,0-4.23a3.73,3.73,0,0,1,3.75-3.58c1.95.16,3.67,1.12,3.81,3.25A71.1,71.1,0,0,1,87.07,68.28Z"/></g></g></svg>