<svg xmlns="http://www.w3.org/2000/svg" width="50" viewBox="0 0 83.79 116.81"><defs><style>.cls-1{fill:#010101;}.cls-2{fill:#fff;}.cls-3{fill:#040405;}.cls-4{fill:#030404;}.cls-5{fill:#020203;}</style></defs><g id="Capa_2" data-name="Capa 2"><g id="Capa_1-2" data-name="Capa 1"><path class="cls-1" d="M25.5,62.73c-3.06-.09-6.12,0-9.19,0-2.43,0-3.6,1.57-3.7,3.78s.94,4.06,3.52,4.25c1.57.12,3.15,0,4.73,0s3.17.11,4.74,0c2.51-.23,3.58-1.77,3.5-4.22S27.86,62.8,25.5,62.73Zm-.7,29.13c-1.28,0-2.56,0-3.84,0s-2.75,0-4.13,0c-2.66-.07-4,1.36-4.25,3.86S14,100,16.67,100.09s5.51.11,8.26,0,4.2-1.59,4.17-4.23S27.72,91.93,24.8,91.86Zm.76-14.64a60.58,60.58,0,0,0-9.43,0c-2.38.18-3.64,1.91-3.54,4.28s1.38,3.84,3.9,3.91c1.47,0,3,0,4.42,0s2.75,0,4.13,0c2.44,0,3.87-1.16,4.05-3.68S28.09,77.42,25.56,77.22Zm-9.07,8.19c1.47,0,3,0,4.42,0s2.75,0,4.13,0c2.44,0,3.87-1.16,4.05-3.68s-1-4.32-3.53-4.52a60.58,60.58,0,0,0-9.43,0c-2.38.18-3.64,1.91-3.54,4.28S14,85.34,16.49,85.41Zm8.31,6.45c-1.28,0-2.56,0-3.84,0s-2.75,0-4.13,0c-2.66-.07-4,1.36-4.25,3.86S14,100,16.67,100.09s5.51.11,8.26,0,4.2-1.59,4.17-4.23S27.72,91.93,24.8,91.86Zm-8.67-21.1c1.57.12,3.15,0,4.73,0s3.17.11,4.74,0c2.51-.23,3.58-1.77,3.5-4.22s-1.24-3.74-3.6-3.81c-3.06-.09-6.12,0-9.19,0-2.43,0-3.6,1.57-3.7,3.78S13.55,70.57,16.13,70.76ZM83,48.46c-1.56-5.78-5.43-11.12-9-16.15-5.76-8.15-8.63-16.84-7.24-26.81a3.87,3.87,0,0,0,0-.59C66.63,1.41,65.32,0,61.89,0Q41.75,0,21.61,0c-3.46,0-4.82,1.37-4.86,4.85q-.09,6.22,0,12.45a8.06,8.06,0,0,1-1.24,4.44c-4.71,8-9.29,16-14,24A10.65,10.65,0,0,0,0,51.28q0,29.91,0,59.83c0,4.5,1.24,5.7,5.85,5.7h72c4.33,0,5.59-1.28,5.59-5.66q0-22.07,0-44.14C83.43,60.8,84.51,54.27,83,48.46ZM30.78,8.32H41.72c4.83,0,9.66.07,14.48,0,1.71,0,2.39.27,2.39,2.22,0,6.19.1,6.19-6.05,6.19-8.28,0-16.56-.06-24.84,0-2.07,0-2.91-.29-2.84-2.67C25,8.32,24.89,8.32,30.78,8.32ZM20.89,29.21,30,45.38H11.35Zm12.64,77.1c0,1.58-.31,2.25-2.09,2.23-7-.11-14-.13-21,0-2,0-2.17-.81-2.16-2.43.06-8.29,0-16.59,0-24.88s.07-16.4,0-24.59c0-2.08.3-2.91,2.67-2.84,6.8.18,13.62.11,20.44,0,1.61,0,2.21.36,2.2,2.11Q33.44,81.13,33.53,106.31ZM39,44.4c-3.57-6.32-7.19-12.61-10.74-18.83.6-1,1.37-.59,2-.6,9.18,0,18.37,0,27.55-.06a3.33,3.33,0,0,1,3.41,2C64.57,33,68.08,39,71.82,45.56c-10.59,0-20.65,0-30.7,0A2.11,2.11,0,0,1,39,44.4Zm36.23,61.73c0,2-.58,2.43-2.47,2.41q-14.36-.15-28.71,0c-1.92,0-2.51-.45-2.48-2.43.11-8.38,0-16.77,0-25.15,0-8.09.07-16.19,0-24.27,0-2,.25-2.92,2.65-2.88,9.57.16,19.14.11,28.71,0,1.79,0,2.31.42,2.3,2.28Q75.11,81.12,75.23,106.13ZM20.91,85.42c1.38,0,2.75,0,4.13,0,2.44,0,3.87-1.16,4.05-3.68s-1-4.32-3.53-4.52a60.58,60.58,0,0,0-9.43,0c-2.38.18-3.64,1.91-3.54,4.28s1.38,3.84,3.9,3.91C18,85.45,19.44,85.42,20.91,85.42Zm3.89,6.44c-1.28,0-2.56,0-3.84,0s-2.75,0-4.13,0c-2.66-.07-4,1.36-4.25,3.86S14,100,16.67,100.09s5.51.11,8.26,0,4.2-1.59,4.17-4.23S27.72,91.93,24.8,91.86Zm.7-29.13c-3.06-.09-6.12,0-9.19,0-2.43,0-3.6,1.57-3.7,3.78s.94,4.06,3.52,4.25c1.57.12,3.15,0,4.73,0s3.17.11,4.74,0c2.51-.23,3.58-1.77,3.5-4.22S27.86,62.8,25.5,62.73Z"/><path class="cls-2" d="M12.61,66.51c.1-2.21,1.27-3.74,3.7-3.78,3.07,0,6.13-.09,9.19,0,2.36.07,3.51,1.47,3.6,3.81s-1,4-3.5,4.22c-1.57.13-3.16,0-4.74,0s-3.16.1-4.73,0C13.55,70.57,12.51,68.83,12.61,66.51Z"/><path class="cls-2" d="M29.1,95.87c0,2.64-1.36,4.13-4.17,4.23s-5.51.12-8.26,0-4.32-1.92-4.09-4.38,1.59-3.93,4.25-3.86c1.38,0,2.75,0,4.13,0s2.56,0,3.84,0C27.72,91.93,29.08,93.2,29.1,95.87Z"/><path class="cls-2" d="M12.59,81.5c-.1-2.37,1.16-4.1,3.54-4.28a60.58,60.58,0,0,1,9.43,0c2.53.2,3.73,1.92,3.53,4.52S27.48,85.39,25,85.42c-1.38,0-2.75,0-4.13,0s-2.95,0-4.42,0C14,85.34,12.7,83.85,12.59,81.5Z"/><path class="cls-3" d="M29.1,95.87c0,2.64-1.36,4.13-4.17,4.23s-5.51.12-8.26,0-4.32-1.92-4.09-4.38,1.59-3.93,4.25-3.86c1.38,0,2.75,0,4.13,0s2.56,0,3.84,0C27.72,91.93,29.08,93.2,29.1,95.87Z"/><path class="cls-4" d="M29.09,81.74c-.18,2.52-1.61,3.65-4.05,3.68-1.38,0-2.75,0-4.13,0s-2.95,0-4.42,0c-2.52-.07-3.79-1.56-3.9-3.91s1.16-4.1,3.54-4.28a60.58,60.58,0,0,1,9.43,0C28.09,77.42,29.29,79.14,29.09,81.74Z"/><path class="cls-5" d="M29.1,66.54c.08,2.45-1,4-3.5,4.22-1.57.13-3.16,0-4.74,0s-3.16.1-4.73,0c-2.58-.19-3.62-1.93-3.52-4.25s1.27-3.74,3.7-3.78c3.07,0,6.13-.09,9.19,0C27.86,62.8,29,64.2,29.1,66.54Z"/></g></g></svg>