<svg xmlns="http://www.w3.org/2000/svg" width="50" viewBox="0 0 145.33 144.39"><defs><style>.cls-1{stroke:#1d1d1b;stroke-miterlimit:10;stroke-width:2px;}</style></defs><g id="Capa_2" data-name="Capa 2"><g id="Capa_1-2" data-name="Capa 1"><path class="cls-1" d="M143,24.26c-.23-6.6-.07-13.22-.07-19.83V2.86c-4.38,0-8.62.18-12.83,0-6.52-.34-13-.95-19.54-1.46a2.92,2.92,0,0,1-.84-.36h-8.54a3.91,3.91,0,0,1-.85.35c-14.87,2.3-25.23,10.44-31,24.26a19.24,19.24,0,0,1-11.06,11A37.55,37.55,0,0,0,36.57,58.19,18.93,18.93,0,0,1,25.38,69.34,38.19,38.19,0,0,0,6.21,85.86C3.36,90.58,2,95.82,1,101.15v8.54c.6,6.09,1.39,12.18,1.75,18.28.29,4.87.06,9.76.06,14.94,1-.06,2.42-.2,3.8-.18q9.59.11,19.16.31a2.47,2.47,0,0,1,.85.35H49.88a10.3,10.3,0,0,1,1.4-.72c12-3.86,20.33-11.72,25-23.38a18.47,18.47,0,0,1,10.85-10.53,37.64,37.64,0,0,0,21.6-21.63A19.08,19.08,0,0,1,120,76,36.09,36.09,0,0,0,140,57.54c2-4.2,2.91-8.88,4.32-13.35V35.65C143.85,31.85,143.09,28.07,143,24.26Zm-25.57,43.6c-7.93,3.47-13.5,8.63-16.7,16.68a28,28,0,0,1-16.12,16.14,28.6,28.6,0,0,0-16.66,16.7c-5.35,13.15-19.28,20.32-33.32,18.16-6.77-1-13.69-1.12-20.54-1.62-.77,0-1.55,0-2.47,0-.16-2.6-.28-5-.45-7.44-.53-7.24-1.53-14.48-1.5-21.71.06-12.89,6.6-22.11,18.19-27.23,8-3.54,13.61-8.72,16.86-16.84a28.6,28.6,0,0,1,16.6-16.31A27.28,27.28,0,0,0,77.15,28.48c5.48-13.59,19.08-20.72,33.94-18.6,7.41,1.06,14.94,1.23,22.63,1.82.37,5.74.72,11.48,1.13,17.21.27,3.78,1,7.55.9,11.31C135.53,53.29,129.21,62.69,117.39,67.86Z"/><path class="cls-1" d="M75.14,52.22A19,19,0,1,0,94.22,71.05,18.91,18.91,0,0,0,75.14,52.22Zm.17,29.45A10.49,10.49,0,1,1,85.75,71.14,10.42,10.42,0,0,1,75.31,81.67Z"/><path class="cls-1" d="M106.51,18.47c-10.34.1-18.57,8.76-18.49,19.44a19,19,0,1,0,18.49-19.44Zm.3,29.45a10.31,10.31,0,0,1-10.3-10.65c0-5.94,4.74-10.38,10.88-10.32a10.49,10.49,0,0,1-.58,21Z"/><path class="cls-1" d="M40.31,86A19,19,0,1,0,59.24,104.5,18.93,18.93,0,0,0,40.31,86Zm-.19,29.44a10.48,10.48,0,1,1,10.63-10.34A10.35,10.35,0,0,1,40.12,115.42Z"/></g></g></svg>