<svg xmlns="http://www.w3.org/2000/svg" width="50" viewBox="0 0 137.72 162.15"><defs><style>.cls-1{stroke:#1d1d1b;stroke-miterlimit:10;stroke-width:0.75px;}</style></defs><g id="Capa_2" data-name="Capa 2"><g id="Capa_1-2" data-name="Capa 1"><path class="cls-1" d="M136.66,120.78C134,106.51,124.74,98.08,111,94.28a2.79,2.79,0,0,1-2.42-2.53A34.1,34.1,0,0,0,98.12,73a3.44,3.44,0,0,1-.7-2.87c1.87-6.66,2.24-13.32,0-20a24.93,24.93,0,0,0-3.08-6.28c-2.31-3.37-4.95-6.51-7.4-9.77-3.11-4.14-3.17-7.75-.29-12.15,1.19-1.83,2.36-3.68,3.7-5.74-4-2.53-7.81-4.8-11.5-7.25C74.7,6.18,70.61,3.24,66.47.38H65.4C64.22,2.07,63,3.76,61.88,5.47S59.47,9,58.33,10.8c-2.9,4.59-7,6.73-12.47,6.8-8.49.12-16.25,2.45-22.88,8.06C11.78,35.16,8,48,12.42,62a2.57,2.57,0,0,1-.83,3.18C7.75,68.67,5.36,73.07,3.1,77.67A27.47,27.47,0,0,0,1.45,97.32a33.12,33.12,0,0,0,9.92,16.62c1.37,1.21,1.46,2.15.91,3.85-3.41,10.49-2.09,20.56,4.42,29.39,5.62,7.63,13.24,12.73,22.93,14.13a5.75,5.75,0,0,1,1.18.46H49.9c.51-.15,1-.35,1.51-.46,8-1.59,15-4.88,20.4-11.11.85-1,1.64-2,2.33-2.88,2.27,2,4.35,3.84,6.55,5.58,13.33,10.55,31.62,10.66,45.58-1.22C135.64,143.71,138.91,132.8,136.66,120.78Zm-70.61,21c-8.22,10.17-20.65,14-33.81,6.7C25.92,145,22.35,139.12,21.12,132s.92-13.5,5.11-19.66c-9.37-4.9-15.64-11.75-15.59-22.74s6.28-17.67,15.5-22.45c-.85-1.55-1.55-2.78-2.21-4-5.6-10.36-3.59-22.24,5.24-30,4.37-3.84,9.72-5.36,15.41-5.86,12.76-1.14,16-2.94,24-13.43L76.46,19c-1.35,2-2.54,3.86-3.78,5.68-4.16,6.12-5.06,12.75-3.26,19.85s1.28,13.71-3,19.62c-2,2.8-5,4.91-7.64,7.24a34.55,34.55,0,0,1-4,2.66c7.15,10.44,7.12,20.86,0,31.36,7.84,4.54,14.29,10,15.35,19.41C70.86,130.94,70,136.92,66.05,141.79Zm60.22-7c-3.26,9.83-15.14,17-25.46,16-9-.93-15.84-4.9-20.06-13a9.46,9.46,0,0,1-.63-4c-.08-3.72.66-7.6-.15-11.13-1.65-7.11-4.77-13.68-10.32-18.76-1.15-1-1.62-1.83-1-3.55a32.05,32.05,0,0,0,0-21.18,2.71,2.71,0,0,1,.8-3.43c4.54-4.07,7.14-9.34,9.35-15,2.06-5.18,1.94-10.33,1.13-15.58-.28-1.75-1.14-3.4-2-5.83,5.84,4.78,9.43,10,10.49,16.79s-1.06,13-4.87,19.07c11.09,5.71,17.36,14.3,15.87,27.32,3.16.4,6.18.33,8.87,1.23,3.54,1.19,7.39,2.52,10.14,4.91C126.64,115.8,129.83,124.11,126.27,134.82Z"/><path class="cls-1" d="M45.4,113.67c-7-.13-15.23,6.47-15.17,14.49s8.1,14.42,15,14.41c8.54,0,15-6.1,15-14.33S53.9,113.83,45.4,113.67Zm0,19.22a4.58,4.58,0,0,1-4.75-4.64,4.63,4.63,0,0,1,4.56-4.87c2.45.09,5.55,1.49,5.28,4.67C50.52,130.94,48.53,132.84,45.39,132.89Z"/><path class="cls-1" d="M45.33,36.8c-7.2,0-15.16,6.56-15.08,14.57s8.36,14.74,15.29,14.26c8.35-.06,14.74-6.29,14.68-14.33C60.18,43,53.82,36.85,45.33,36.8ZM45.39,56a4.62,4.62,0,0,1-4.81-4.61c0-2.53,2.14-5,4.62-4.88,2.7.19,5.4,1.43,5.31,4.69C50.57,54.09,48.58,56,45.39,56Z"/><path class="cls-1" d="M50.54,89.66c.71-7.47-8-14.63-15-14.47-8.22.19-14.75,6.48-14.73,14.45,0,8.39,6.43,14.23,15.13,14.51C42.47,104.36,51.5,96.86,50.54,89.66ZM35.68,94.47c-3,0-5.32-2-5.33-4.78s2.46-4.82,5.37-4.79a4.82,4.82,0,0,1,4.69,4.83A4.73,4.73,0,0,1,35.68,94.47Z"/></g></g></svg>